Coordinates
version=1
nRows=19
nColumns=63
inDegrees=yes

Units are S.I. units (second, meters, Newtons, ...)
If the header above contains a line with 'inDegrees', this indicates whether rotational values are in degrees (yes) or radians (no).

endheader
time	pelvis_tilt	pelvis_list	pelvis_rotation	pelvis_tx	pelvis_ty	pelvis_tz	hip_flexion_r	hip_adduction_r	hip_rotation_r	knee_angle_r	knee_angle_r_beta	ankle_angle_r	subtalar_angle_r	mtp_angle_r	hip_flexion_l	hip_adduction_l	hip_rotation_l	knee_angle_l	knee_angle_l_beta	ankle_angle_l	subtalar_angle_l	mtp_angle_l	L5_S1_Flex_Ext	L5_S1_Lat_Bending	L5_S1_axial_rotation	L4_L5_Flex_Ext	L4_L5_Lat_Bending	L4_L5_axial_rotation	L3_L4_Flex_Ext	L3_L4_Lat_Bending	L3_L4_axial_rotation	L2_L3_Flex_Ext	L2_L3_Lat_Bending	L2_L3_axial_rotation	L1_L2_Flex_Ext	L1_L2_Lat_Bending	L1_L2_axial_rotation	L1_T12_Flex_Ext	L1_T12_Lat_Bending	L1_T12_axial_rotation	Abs_r3	Abs_r2	Abs_r1	Abs_t1	Abs_t2	neck_flexion	neck_bending	neck_rotation	arm_flex_r	arm_add_r	arm_rot_r	elbow_flex_r	pro_sup_r	wrist_flex_r	wrist_dev_r	arm_flex_l	arm_add_l	arm_rot_l	elbow_flex_l	pro_sup_l	wrist_flex_l	wrist_dev_l
3.750000	-5.174140	-2.086126	103.897104	0.099045	1.071907	0.439976	-7.789682	-3.072137	1.078701	4.636345	0.080919	26.800905	-8.247033	0.000000	-7.090670	1.960732	15.764088	0.795585	0.013886	28.567290	-8.316499	0.000000	0.159687	-0.574986	2.364883	0.296555	-0.764731	2.512688	0.262350	-1.398020	2.512688	0.182506	-1.398020	2.069273	0.148285	-1.172510	1.921468	0.091245	-0.890653	1.773662	1.140628	-6.504351	13.152771	0.000000	0.000000	26.855225	-0.668296	-5.278549	-28.768269	-33.105964	-8.919735	81.548453	85.908444	13.163610	22.648333	1.984540	-26.514932	43.035416	71.260030	88.991688	-12.596287	-2.405234
3.766667	-4.779299	-2.043806	104.560278	0.097695	1.071108	0.440866	-7.812386	-2.602910	0.276154	4.588497	0.080084	26.979596	-8.304381	0.000000	-6.943073	1.516689	16.854526	0.847474	0.014791	28.765598	-8.785037	0.000000	0.161688	-0.525360	1.941367	0.300270	-0.698729	2.062703	0.265637	-1.277360	2.062703	0.184793	-1.277360	1.698697	0.150143	-1.071314	1.577361	0.092388	-0.813783	1.456026	1.154919	-5.942977	10.797304	0.000000	0.000000	26.931822	-0.241268	-3.479509	-29.554062	-32.583311	-4.683994	81.082871	86.849745	13.852753	18.449134	1.845976	-25.620870	42.468514	70.520607	88.850179	-11.784954	-1.989173
3.783333	-4.402596	-2.063994	105.288744	0.096416	1.070306	0.442128	-7.737988	-2.165025	-0.702668	4.576218	0.079870	27.191815	-8.258292	0.000000	-6.682024	1.103587	17.976238	0.922168	0.016095	28.931479	-9.192329	0.000000	0.165097	-0.482875	1.498965	0.306602	-0.642224	1.592650	0.271238	-1.174062	1.592650	0.188690	-1.174062	1.311594	0.153309	-0.984679	1.217909	0.094337	-0.747973	1.124224	1.179274	-5.462379	8.336793	0.000000	0.000000	27.014877	0.273793	-1.842774	-29.677823	-32.018413	-0.340281	80.688322	87.514559	13.666304	13.667730	1.543250	-24.658086	41.595316	69.822082	88.723048	-10.775197	-1.171504
3.800000	-4.042858	-2.148307	106.065953	0.095189	1.069494	0.443775	-7.583121	-1.756060	-1.697734	4.558661	0.079564	27.351315	-8.315500	0.000000	-6.305929	0.733154	19.196855	1.021948	0.017836	29.040182	-9.671258	0.000000	0.171142	-0.446288	1.043429	0.317829	-0.593564	1.108643	0.281170	-1.085106	1.108643	0.195599	-1.085106	0.913000	0.158923	-0.910071	0.847786	0.097791	-0.691301	0.782572	1.222453	-5.048504	5.803239	0.000000	0.000000	27.105476	0.867840	-0.330211	-29.180564	-31.393486	3.952252	80.358346	87.994651	12.784421	8.661574	1.123204	-23.639628	40.558197	69.134065	88.622592	-9.602564	-0.088702
3.816667	-3.709674	-2.290524	106.874569	0.093987	1.068668	0.445818	-7.354221	-1.402881	-2.830000	4.550071	0.079414	27.496225	-8.269292	0.000000	-5.821003	0.421353	20.373906	1.162702	0.020293	29.135525	-10.048515	0.000000	0.178789	-0.414937	0.579178	0.332030	-0.551866	0.615377	0.293733	-1.008878	0.615377	0.204338	-1.008878	0.506781	0.166024	-0.846140	0.470582	0.102160	-0.642737	0.434384	1.277074	-4.693851	3.221215	0.000000	0.000000	27.202259	1.520278	1.120548	-28.138465	-30.678554	8.017667	80.094798	88.419273	11.391956	3.729845	0.624813	-22.565520	39.436632	68.434256	88.563591	-8.188668	1.183559
3.833333	-3.399475	-2.489597	107.682875	0.092789	1.067806	0.448199	-7.062104	-1.108379	-4.054063	4.536659	0.079180	27.613132	-8.122859	0.000000	-5.237630	0.170971	21.463175	1.345450	0.023483	29.235412	-10.307434	0.000000	0.189095	-0.387012	0.116407	0.351169	-0.514725	0.123682	0.310665	-0.940980	0.123682	0.216117	-0.940980	0.101856	0.175594	-0.789194	0.094580	0.108049	-0.599481	0.087305	1.350690	-4.377953	0.647419	0.000000	0.000000	27.302565	2.200548	2.546425	-26.700212	-29.839812	11.654379	79.894364	88.858579	9.688073	-0.845940	0.112617	-21.439551	38.363795	67.665913	88.564681	-6.588391	2.431590
3.850000	-3.135733	-2.746380	108.414149	0.091691	1.066888	0.450856	-6.696866	-0.902543	-5.259409	4.534382	0.079140	27.710603	-7.920488	0.000000	-4.574431	0.010152	22.425401	1.559884	0.027225	29.335177	-10.487519	0.000000	0.201380	-0.364972	-0.325853	0.373983	-0.485412	-0.346219	0.330847	-0.887392	-0.346219	0.230157	-0.887392	-0.285121	0.187001	-0.744250	-0.264755	0.115069	-0.565341	-0.244390	1.438437	-4.128632	-1.812296	0.000000	0.000000	27.405905	2.883730	3.914684	-24.971897	-28.829336	14.754939	79.698085	89.485385	7.915954	-4.793512	-0.302409	-20.310010	37.565072	66.776462	88.633532	-5.094181	3.353981
3.866667	-2.915581	-3.045881	109.063789	0.090646	1.065925	0.453695	-6.290169	-0.778657	-6.421846	4.526166	0.078997	27.790302	-7.660589	0.000000	-3.858507	-0.070057	23.236924	1.802766	0.031464	29.458179	-10.551233	0.000000	0.215283	-0.346994	-0.749033	0.399803	-0.461502	-0.795847	0.353689	-0.843682	-0.795847	0.246047	-0.843682	-0.655404	0.199912	-0.707591	-0.608589	0.123013	-0.537494	-0.561775	1.537747	-3.925267	-4.165896	0.000000	0.000000	27.513260	3.617260	5.342779	-23.002630	-27.674222	17.430676	79.396867	89.871926	6.162629	-7.881021	-0.610571	-19.183436	37.042022	65.767190	88.721468	-3.665371	3.949029
3.883333	-2.743405	-3.371415	109.601377	0.089665	1.064943	0.456644	-5.859638	-0.737864	-7.474990	4.510138	0.078717	27.857624	-7.366868	0.000000	-3.121678	-0.070419	23.887763	2.064190	0.036027	29.608421	-10.518707	0.000000	0.229502	-0.333024	-1.145331	0.426207	-0.442922	-1.216914	0.377048	-0.809715	-1.216914	0.262297	-0.809715	-1.002165	0.213115	-0.679103	-0.930581	0.131137	-0.515854	-0.858998	1.639307	-3.767234	-6.369988	0.000000	0.000000	27.617022	4.426219	6.833871	-20.822852	-26.393954	19.841511	78.829744	89.790455	4.612934	-10.027707	-0.759130	-18.098591	36.881829	64.653689	88.749692	-2.401801	4.200344
3.900000	-2.621752	-3.704880	109.997617	0.088775	1.063973	0.459642	-5.417918	-0.781360	-8.391775	4.493675	0.078429	27.927582	-7.004304	0.000000	-2.392227	0.004179	24.331708	2.340522	0.040850	29.794183	-10.361614	0.000000	0.242540	-0.322849	-1.507147	0.450421	-0.429389	-1.601343	0.398469	-0.784975	-1.601343	0.277199	-0.784975	-1.318753	0.225222	-0.658354	-1.224557	0.138587	-0.500093	-1.130360	1.732437	-3.652133	-8.382297	0.000000	0.000000	27.711472	5.314262	8.363136	-18.428282	-25.017570	22.256812	77.866624	88.974569	3.318215	-11.268903	-0.717523	-17.096689	37.134684	63.477785	88.519060	-1.359845	4.152530
3.916667	-2.550687	-4.035504	110.200368	0.088038	1.063041	0.462616	-4.962640	-0.907942	-9.114123	4.487678	0.078325	28.007753	-6.561320	0.000000	-1.697888	0.147192	24.530287	2.613148	0.045608	30.005471	-10.109451	0.000000	0.254050	-0.315732	-1.821875	0.471796	-0.419923	-1.935742	0.417379	-0.767670	-1.935742	0.290354	-0.767670	-1.594141	0.235911	-0.643840	-1.480273	0.145164	-0.489069	-1.366406	1.814654	-3.571621	-10.132722	0.000000	0.000000	27.794846	6.263688	9.927863	-15.832803	-23.560108	24.847675	76.452451	87.477855	2.300130	-11.655743	-0.496716	-16.196459	37.759013	62.275603	87.985131	-0.559501	3.816841
3.933333	-2.527873	-4.350496	110.213428	0.087451	1.062163	0.465512	-4.520232	-1.101001	-9.540900	4.465233	0.077933	28.068202	-6.173341	0.000000	-1.058101	0.354997	24.624047	2.879599	0.050258	30.200732	-9.964818	0.000000	0.263381	-0.310993	-2.091386	0.489125	-0.413621	-2.222097	0.432709	-0.756148	-2.222097	0.301018	-0.756148	-1.829963	0.244576	-0.634177	-1.699251	0.150496	-0.481728	-1.568539	1.881306	-3.518014	-11.631660	0.000000	0.000000	27.860020	7.251971	11.525580	-13.002390	-22.072279	27.880851	74.652820	84.999197	1.587540	-11.102688	-0.157989	-15.406859	38.598227	61.103289	87.234207	0.119742	3.275445
3.950000	-2.550812	-4.637128	110.017282	0.087058	1.061364	0.468268	-4.095444	-1.351877	-9.699008	4.443285	0.077550	28.125868	-5.792108	0.000000	-0.490735	0.615691	24.576508	3.138286	0.054773	30.383039	-9.931858	0.000000	0.269515	-0.308247	-2.305674	0.500516	-0.409968	-2.449778	0.442786	-0.749471	-2.449778	0.308028	-0.749471	-2.017465	0.250271	-0.628577	-1.873360	0.154001	-0.477474	-1.729255	1.925117	-3.486950	-12.823466	0.000000	0.000000	27.905418	8.234304	13.112299	-10.033441	-20.595293	31.257637	72.563870	82.091399	1.208674	-9.758127	0.288797	-14.730708	39.659889	59.996389	86.036113	0.830894	2.648342
3.966667	-2.605223	-4.887786	109.599347	0.086867	1.060655	0.470850	-3.674043	-1.651897	-9.724463	4.465465	0.077937	28.208852	-5.255797	0.000000	0.003367	0.901912	24.183226	3.400786	0.059355	30.609714	-9.769204	0.000000	0.272545	-0.305409	-2.455610	0.506143	-0.406194	-2.609085	0.447764	-0.742571	-2.609085	0.311491	-0.742571	-2.148658	0.253085	-0.622790	-1.995183	0.155732	-0.473078	-1.841707	1.946759	-3.454847	-13.657364	0.000000	0.000000	27.921406	9.138405	14.647649	-7.030299	-19.169820	34.866470	70.296476	79.086655	1.316684	-7.940000	0.858849	-14.143229	40.980970	58.929429	84.541854	1.488763	1.912327
3.983333	-2.695565	-5.106441	108.958843	0.086891	1.060035	0.473205	-3.246739	-2.006343	-9.689914	4.553930	0.079481	28.341508	-4.497568	0.000000	0.421765	1.211446	23.428294	3.661847	0.063911	30.860785	-9.480408	0.000000	0.273131	-0.304670	-2.541957	0.507232	-0.405211	-2.700829	0.448727	-0.740775	-2.700829	0.312161	-0.740775	-2.224212	0.253629	-0.621283	-2.065340	0.156067	-0.471934	-1.906468	1.950948	-3.446489	-14.137600	0.000000	0.000000	27.914407	9.980584	16.067120	-4.049587	-17.849251	38.645022	67.949018	76.535705	1.848435	-6.189318	1.464964	-13.609947	42.350360	57.937001	83.037820	2.322739	1.154276
4.000000	-2.803581	-5.294509	108.130294	0.087087	1.059493	0.475327	-2.804593	-2.389116	-9.606021	4.724164	0.082452	28.525386	-3.574309	0.000000	0.779471	1.520542	22.370312	3.937377	0.068720	31.129995	-9.109417	0.000000	0.271663	-0.304167	-2.566879	0.504506	-0.404542	-2.727309	0.446316	-0.739551	-2.727309	0.310484	-0.739551	-2.246019	0.252266	-0.620256	-2.085589	0.155228	-0.471154	-1.925159	1.940463	-3.440793	-14.276210	0.000000	0.000000	27.884165	10.713928	17.361521	-1.180234	-16.644946	42.507990	65.610864	74.390432	2.594544	-4.758784	2.123434	-13.124032	43.797059	57.025113	81.563717	3.182146	0.393835
4.016667	-2.922238	-5.457094	107.120625	0.087448	1.059027	0.477204	-2.326044	-2.787702	-9.481303	4.999687	0.087261	28.771365	-2.508090	0.000000	1.082370	1.817800	21.047746	4.216624	0.073594	31.390395	-8.691619	0.000000	0.268662	-0.303885	-2.525632	0.498933	-0.404167	-2.683484	0.441386	-0.738866	-2.683484	0.307054	-0.738866	-2.209928	0.249480	-0.619682	-2.052076	0.153514	-0.470718	-1.894224	1.919029	-3.437607	-14.046806	0.000000	0.000000	27.838191	11.312798	18.478464	1.476468	-15.560839	46.316249	63.352852	72.634475	3.315160	-3.823823	2.829271	-12.678017	45.293740	56.191850	80.196582	3.975269	-0.372308
4.033333	-3.035206	-5.602968	105.951675	0.087939	1.058610	0.478805	-1.798355	-3.178092	-9.317043	5.370575	0.093734	29.064545	-1.329078	0.000000	1.338884	2.084681	19.489019	4.472818	0.078065	31.651985	-8.218326	0.000000	0.266341	-0.302889	-2.414480	0.494621	-0.402843	-2.565385	0.437571	-0.736445	-2.565385	0.304401	-0.736445	-2.112670	0.247324	-0.617652	-1.961765	0.152187	-0.469175	-1.810860	1.902444	-3.426344	-13.428614	0.000000	0.000000	27.782059	11.762681	19.376489	3.792435	-14.574429	49.844411	61.238949	71.220088	3.951965	-3.391978	3.588988	-12.280659	46.862849	55.440059	78.982057	4.669819	-1.130069
4.050000	-3.152687	-5.729229	104.688334	0.088503	1.058278	0.480195	-1.226424	-3.569517	-9.157070	5.848989	0.102084	29.414371	-0.049107	0.000000	1.564327	2.330605	17.767193	4.725335	0.082473	31.895610	-7.693533	0.000000	0.262294	-0.302817	-2.253156	0.487106	-0.402747	-2.393978	0.430922	-0.736269	-2.393978	0.299775	-0.736269	-1.971511	0.243566	-0.617504	-1.830689	0.149875	-0.469063	-1.689867	1.873537	-3.425526	-12.531376	0.000000	0.000000	27.712488	12.078439	20.072673	5.806743	-13.706872	53.144239	59.259318	70.178075	4.298338	-3.468711	4.341664	-11.957820	48.381575	54.817095	78.086362	5.179512	-1.878657
